<svg xmlns="http://www.w3.org/2000/svg" height="934pt" version="1.1" viewBox="-12 0 934 934.99782" width="934pt">
<g id="surface1">
<path d="M 896.144531 138.429688 L 824.617188 66.902344 C 821.6875 63.96875 817.703125 62.324219 813.550781 62.335938 L 517.46875 62.335938 L 517.46875 46.753906 C 517.46875 20.929688 496.535156 0 470.714844 0 L 439.550781 0 C 413.730469 0 392.800781 20.929688 392.800781 46.753906 L 392.800781 62.335938 L 190.214844 62.335938 C 164.398438 62.335938 143.46875 83.265625 143.46875 109.082031 L 143.46875 233.75 C 143.46875 259.566406 164.398438 280.5 190.214844 280.5 L 392.800781 280.5 L 392.800781 311.664062 L 330.46875 311.664062 C 304.644531 311.664062 283.714844 332.597656 283.714844 358.417969 L 283.714844 420.75 C 283.714844 446.566406 304.644531 467.5 330.46875 467.5 L 392.800781 467.5 L 392.800781 498.671875 L 96.714844 498.671875 C 92.582031 498.671875 88.617188 500.308594 85.699219 503.238281 L 14.128906 574.765625 C -4.042969 593.003906 -4.042969 622.503906 14.128906 640.746094 L 85.65625 712.269531 C 88.578125 715.207031 92.574219 716.851562 96.714844 716.835938 L 392.800781 716.835938 L 392.800781 825.917969 L 340.445312 825.917969 C 318.175781 825.980469 299.019531 841.683594 294.632812 863.507812 L 284.027344 916.308594 C 283.09375 920.886719 284.265625 925.652344 287.226562 929.285156 C 290.183594 932.90625 294.617188 934.996094 299.300781 934.996094 L 610.96875 934.996094 C 615.648438 934.996094 620.082031 932.90625 623.039062 929.285156 C 626.003906 925.652344 627.167969 920.886719 626.238281 916.308594 L 615.636719 863.507812 C 611.242188 841.683594 592.085938 825.980469 569.820312 825.917969 L 517.46875 825.917969 L 517.46875 716.835938 L 720.050781 716.835938 C 745.871094 716.835938 766.804688 695.902344 766.804688 670.082031 L 766.804688 545.417969 C 766.804688 519.601562 745.871094 498.671875 720.050781 498.671875 L 517.46875 498.671875 L 517.46875 467.5 L 579.796875 467.5 C 605.617188 467.5 626.550781 446.566406 626.550781 420.75 L 626.550781 358.417969 C 626.550781 332.597656 605.617188 311.664062 579.796875 311.664062 L 517.46875 311.664062 L 517.46875 280.5 L 813.550781 280.5 C 817.683594 280.5 821.648438 278.855469 824.570312 275.933594 L 896.09375 204.410156 C 914.273438 186.175781 914.292969 156.6875 896.144531 138.429688 Z M 423.96875 46.753906 C 423.96875 38.140625 430.945312 31.164062 439.550781 31.164062 L 470.714844 31.164062 C 479.320312 31.164062 486.296875 38.140625 486.296875 46.753906 L 486.296875 62.335938 L 423.96875 62.335938 Z M 585.113281 869.554688 L 591.945312 903.835938 L 318.320312 903.835938 L 325.152344 869.554688 C 326.628906 862.292969 333.023438 857.078125 340.445312 857.085938 L 569.820312 857.085938 C 577.238281 857.078125 583.632812 862.292969 585.113281 869.554688 Z M 486.296875 825.917969 L 423.96875 825.917969 L 423.96875 716.835938 L 486.296875 716.835938 Z M 735.628906 545.417969 L 735.628906 670.082031 C 735.628906 678.691406 728.65625 685.671875 720.050781 685.671875 L 103.167969 685.671875 L 36.152344 618.660156 C 30.15625 612.589844 30.15625 602.824219 36.152344 596.746094 L 103.167969 529.742188 L 720.050781 529.742188 C 724.203125 529.742188 728.175781 531.398438 731.105469 534.339844 C 734.03125 537.28125 735.65625 541.273438 735.628906 545.417969 Z M 486.296875 498.671875 L 423.96875 498.671875 L 423.96875 467.5 L 486.296875 467.5 Z M 595.386719 358.417969 L 595.386719 420.75 C 595.386719 429.355469 588.410156 436.335938 579.796875 436.335938 L 330.46875 436.335938 C 321.855469 436.335938 314.878906 429.355469 314.878906 420.75 L 314.878906 358.417969 C 314.878906 349.8125 321.855469 342.835938 330.46875 342.835938 L 579.796875 342.835938 C 588.410156 342.835938 595.386719 349.8125 595.386719 358.417969 Z M 486.296875 311.664062 L 423.96875 311.664062 L 423.96875 280.5 L 486.296875 280.5 Z M 874.058594 182.328125 L 807.054688 249.335938 L 190.214844 249.335938 C 181.609375 249.335938 174.632812 242.355469 174.632812 233.75 L 174.632812 109.082031 C 174.632812 100.476562 181.609375 93.5 190.214844 93.5 L 807.097656 93.5 L 874.109375 160.511719 C 880.027344 166.585938 880.015625 176.277344 874.058594 182.328125 Z M 874.058594 182.328125 " style=" stroke:none;fill-rule:nonzero;fill:rgb(0%,0%,0%);fill-opacity:1;" />
<path d="M 190.214844 109.082031 L 221.378906 109.082031 L 221.378906 140.253906 L 190.214844 140.253906 Z M 190.214844 109.082031 " style=" stroke:none;fill-rule:nonzero;fill:rgb(0%,0%,0%);fill-opacity:1;" />
<path d="M 236.96875 109.082031 L 268.132812 109.082031 L 268.132812 140.253906 L 236.96875 140.253906 Z M 236.96875 109.082031 " style=" stroke:none;fill-rule:nonzero;fill:rgb(0%,0%,0%);fill-opacity:1;" />
<path d="M 688.886719 545.417969 L 720.050781 545.417969 L 720.050781 576.582031 L 688.886719 576.582031 Z M 688.886719 545.417969 " style=" stroke:none;fill-rule:nonzero;fill:rgb(0%,0%,0%);fill-opacity:1;" />
<path d="M 642.128906 545.417969 L 673.296875 545.417969 L 673.296875 576.582031 L 642.128906 576.582031 Z M 642.128906 545.417969 " style=" stroke:none;fill-rule:nonzero;fill:rgb(0%,0%,0%);fill-opacity:1;" />
<path d="M 501.886719 374 L 533.050781 374 L 533.050781 405.171875 L 501.886719 405.171875 Z M 501.886719 374 " style=" stroke:none;fill-rule:nonzero;fill:rgb(0%,0%,0%);fill-opacity:1;" />
<path d="M 423.96875 374 L 486.296875 374 L 486.296875 405.171875 L 423.96875 405.171875 Z M 423.96875 374 " style=" stroke:none;fill-rule:nonzero;fill:rgb(0%,0%,0%);fill-opacity:1;" />
<path d="M 377.214844 374 L 408.382812 374 L 408.382812 405.171875 L 377.214844 405.171875 Z M 377.214844 374 " style=" stroke:none;fill-rule:nonzero;fill:rgb(0%,0%,0%);fill-opacity:1;" />
</g>
</svg>