<?xml version="1.0" encoding="iso-8859-1"?>
<!-- Generator: Adobe Illustrator 19.0.0, SVG Export Plug-In . SVG Version: 6.00 Build 0)  -->
<svg version="1.1" id="Capa_1" xmlns="http://www.w3.org/2000/svg" xmlns:xlink="http://www.w3.org/1999/xlink" x="0px" y="0px"
	 viewBox="0 0 480 480" style="enable-background:new 0 0 480 480;" xml:space="preserve">
<g>
	<g>
		<path d="M479.92,55.6c-0.039-0.801-0.198-1.591-0.472-2.344c-0.056-0.152-0.072-0.312-0.136-0.464l-0.048-0.144
			c-0.374-0.787-0.877-1.506-1.488-2.128c-0.16-0.168-0.344-0.296-0.52-0.448c-0.528-0.469-1.117-0.865-1.752-1.176
			c-0.237-0.125-0.479-0.237-0.728-0.336c-0.884-0.352-1.825-0.542-2.776-0.56H8c-0.951,0.018-1.892,0.208-2.776,0.56
			c-0.248,0.099-0.491,0.211-0.728,0.336c-0.634,0.311-1.224,0.707-1.752,1.176c-0.176,0.152-0.36,0.28-0.52,0.448
			c-0.611,0.622-1.114,1.341-1.488,2.128L0.688,52.8c-0.064,0.152-0.08,0.312-0.136,0.464c-0.274,0.753-0.433,1.543-0.472,2.344
			c0,0.144-0.08,0.256-0.08,0.4V424c0,0.144,0.072,0.256,0.08,0.4c0.039,0.801,0.198,1.591,0.472,2.344
			c0.056,0.152,0.072,0.312,0.136,0.464l0.048,0.144c0.374,0.787,0.877,1.506,1.488,2.128c0.16,0.168,0.344,0.296,0.52,0.448
			c0.528,0.469,1.117,0.865,1.752,1.176c0.237,0.125,0.479,0.237,0.728,0.336C6.108,431.792,7.049,431.982,8,432h464
			c0.951-0.018,1.892-0.208,2.776-0.56c0.248-0.099,0.492-0.211,0.728-0.336c0.634-0.311,1.224-0.707,1.752-1.176
			c0.176-0.152,0.36-0.28,0.52-0.448c0.611-0.622,1.114-1.341,1.488-2.128l0.048-0.144c0.064-0.152,0.08-0.312,0.136-0.464
			c0.274-0.753,0.433-1.543,0.472-2.344c0-0.144,0.08-0.256,0.08-0.4V56C480,55.856,479.928,55.744,479.92,55.6z M454.664,64
			L240,315.672L25.336,64H454.664z M16,77.704L154.44,240L16,402.296V77.704z M25.336,416l139.616-163.664l68.96,80.856
			c2.866,3.362,7.916,3.764,11.278,0.898c0.323-0.275,0.623-0.575,0.898-0.898l68.96-80.856L454.664,416H25.336z M464,402.296
			L325.6,240L464,77.704V402.296z"/>
	</g>
</g>
<g>
</g>
<g>
</g>
<g>
</g>
<g>
</g>
<g>
</g>
<g>
</g>
<g>
</g>
<g>
</g>
<g>
</g>
<g>
</g>
<g>
</g>
<g>
</g>
<g>
</g>
<g>
</g>
<g>
</g>
</svg>
