<?xml version="1.0" encoding="UTF-8" standalone="no"?>
<!-- Created with Inkscape (http://www.inkscape.org/) -->

<svg
   xmlns:dc="http://purl.org/dc/elements/1.1/"
   xmlns:cc="http://creativecommons.org/ns#"
   xmlns:rdf="http://www.w3.org/1999/02/22-rdf-syntax-ns#"
   xmlns:svg="http://www.w3.org/2000/svg"
   xmlns="http://www.w3.org/2000/svg"
   xmlns:sodipodi="http://sodipodi.sourceforge.net/DTD/sodipodi-0.dtd"
   xmlns:inkscape="http://www.inkscape.org/namespaces/inkscape"
   width="191.46085mm"
   height="106.49403mm"
   viewBox="0 0 191.46085 106.49403"
   version="1.1"
   id="svg8"
   sodipodi:docname="NOVO LOGO.svg"
   inkscape:version="0.92.4 (5da689c313, 2019-01-14)">
  <defs
     id="defs2" />
  <sodipodi:namedview
     id="base"
     pagecolor="#ffffff"
     bordercolor="#666666"
     borderopacity="1.0"
     inkscape:pageopacity="0.0"
     inkscape:pageshadow="2"
     inkscape:zoom="1.4"
     inkscape:cx="418.39853"
     inkscape:cy="151.76154"
     inkscape:document-units="mm"
     inkscape:current-layer="layer1"
     showgrid="false"
     showguides="true"
     inkscape:guide-bbox="true"
     fit-margin-top="10"
     fit-margin-left="10"
     fit-margin-right="10"
     fit-margin-bottom="10"
     inkscape:window-width="1920"
     inkscape:window-height="1001"
     inkscape:window-x="-9"
     inkscape:window-y="-9"
     inkscape:window-maximized="1">
    <sodipodi:guide
       position="51.242494,-29.882317"
       orientation="0,1"
       id="guide834"
       inkscape:locked="false" />
  </sodipodi:namedview>
  <metadata
     id="metadata5">
    <rdf:RDF>
      <cc:Work
         rdf:about="">
        <dc:format>image/svg+xml</dc:format>
        <dc:type
           rdf:resource="http://purl.org/dc/dcmitype/StillImage" />
        <dc:title></dc:title>
      </cc:Work>
    </rdf:RDF>
  </metadata>
  <g
     inkscape:label="Camada 1"
     inkscape:groupmode="layer"
     id="layer1"
     transform="translate(-9.9896455,-27.198065)">
    <rect
       style="fill:#e5e5e5;fill-opacity:1;stroke:#e5e5e5;stroke-width:0.26458332;stroke-opacity:1"
       id="rect815"
       width="113.01488"
       height="9.8273811"
       x="48.002975"
       y="63.864277" />
    <rect
       style="fill:#e5e5e5;fill-opacity:1;stroke:#e5e5e5;stroke-width:0.26458332;stroke-opacity:1"
       id="rect817"
       width="9.8273811"
       height="65.011902"
       x="41.871517"
       y="37.414196"
       ry="4.9136906" />
    <rect
       style="fill:#e5e5e5;fill-opacity:1;stroke:#e5e5e5;stroke-width:0.26458332;stroke-opacity:1"
       id="rect817-3"
       width="9.8273811"
       height="65.011902"
       x="159.50595"
       y="37.330357"
       ry="4.9136906" />
    <rect
       style="fill:#e5e5e5;fill-opacity:1;stroke:#e5e5e5;stroke-width:0.21698712;stroke-opacity:1"
       id="rect817-3-6"
       width="9.8749771"
       height="43.514858"
       x="170.897"
       y="47.058323"
       ry="4.9374886" />
    <rect
       style="fill:#e5e5e5;fill-opacity:1;stroke:#e5e5e5;stroke-width:0.21698713;stroke-opacity:1"
       id="rect817-3-6-7"
       width="9.8749781"
       height="43.514858"
       x="30.668295"
       y="47.058323"
       ry="4.937489" />
    <rect
       style="fill:#e5e5e5;fill-opacity:1;stroke:#e5e5e5;stroke-width:0.15811819;stroke-opacity:1"
       id="rect817-3-6-7-1"
       width="9.9074793"
       height="23.030653"
       x="19.539537"
       y="56.97546"
       ry="4.9537396" />
    <rect
       style="fill:#e5e5e5;fill-opacity:1;stroke:#e5e5e5;stroke-width:0.1581182;stroke-opacity:1"
       id="rect817-3-6-7-1-4"
       width="9.9074793"
       height="23.030653"
       x="181.99312"
       y="56.97546"
       ry="4.9537396" />
    <text
       xml:space="preserve"
       style="font-style:normal;font-weight:normal;font-size:10.58333302px;line-height:1.25;font-family:sans-serif;letter-spacing:0px;word-spacing:0px;fill:#000000;fill-opacity:1;stroke:none;stroke-width:0.26458332"
       x="24.757439"
       y="61.142857"
       id="text898"><tspan
         sodipodi:role="line"
         id="tspan896"
         x="24.757439"
         y="70.798355"
         style="stroke-width:0.26458332"></tspan></text>
    <g
       aria-label="RIGHT"
       transform="scale(1.0459998,0.95602317)"
       style="font-style:normal;font-variant:normal;font-weight:bold;font-stretch:normal;font-size:35.62316513px;line-height:1.25;font-family:Bahnschrift;-inkscape-font-specification:'Bahnschrift, Bold';font-variant-ligatures:normal;font-variant-caps:normal;font-variant-numeric:normal;font-feature-settings:normal;text-align:start;letter-spacing:0px;word-spacing:0px;writing-mode:lr-tb;text-anchor:start;fill:#e5e5e5;fill-opacity:1;stroke:none;stroke-width:0.8905791"
       id="text902">
      <path
         d="m 55.155024,49.996374 h 8.801427 q 0.730553,0 1.287165,-0.365277 0.556612,-0.365276 0.852312,-1.043647 0.313094,-0.678371 0.330488,-1.565471 v 0 q 0,-0.887101 -0.313094,-1.565472 -0.2957,-0.67837 -0.852312,-1.043647 -0.556612,-0.365277 -1.304559,-0.365277 h -8.801427 v -4.592048 h 9.184097 q 2.087295,0 3.67016,0.939283 1.582866,0.939282 2.452572,2.6613 0.869706,1.704625 0.869706,3.965861 v 0 q 0,2.261236 -0.869706,3.983254 -0.869706,1.704624 -2.469966,2.643907 -1.582865,0.939282 -3.652766,0.939282 H 55.155024 Z M 53.259065,39.455535 h 4.765989 v 25.30845 h -4.765989 z m 7.218561,14.350152 5.096478,-0.80013 6.818497,11.758428 h -5.77485 z"
         style="fill:#e5e5e5;fill-opacity:1;stroke-width:0.8905791"
         id="path931"
         inkscape:connector-curvature="0" />
      <path
         d="M 81.089661,64.763985 H 76.14973 V 39.472929 h 4.939931 z"
         style="fill:#e5e5e5;fill-opacity:1;stroke-width:0.8905791"
         id="path933"
         inkscape:connector-curvature="0" />
      <path
         d="m 104.29342,50.622562 v 4.939931 q 0,2.817848 -1.14802,4.97472 -1.13061,2.139477 -3.217906,3.322277 -2.08729,1.165407 -4.835561,1.165407 -2.765666,0 -4.887749,-1.09583 -2.104689,-1.113224 -3.270095,-3.130943 -1.148012,-2.017718 -1.148012,-4.679019 v -7.462079 q 0,-2.817848 1.130618,-4.957325 1.148012,-2.139477 3.235307,-3.304883 2.087294,-1.182801 4.835566,-1.182801 2.261236,0 4.17459,0.939283 1.913342,0.921888 3.183112,2.626512 1.28717,1.704625 1.73942,3.948467 v 0 h -5.148656 v 0 q -0.260912,-0.80013 -0.869706,-1.374136 -0.5914,-0.5914 -1.408924,-0.887101 -0.80013,-0.313094 -1.669836,-0.313094 -1.269771,0 -2.243842,0.556612 -0.956677,0.556612 -1.495895,1.582865 -0.521823,1.026254 -0.521823,2.365601 v 7.462079 q 0,1.182801 0.539218,2.087295 0.539217,0.904495 1.530682,1.39153 0.991465,0.487035 2.296025,0.487035 1.287165,0 2.243842,-0.521823 0.974071,-0.539218 1.495894,-1.548077 0.521829,-1.008859 0.521829,-2.382995 v -0.417459 h -3.826712 v -4.592049 z"
         style="fill:#e5e5e5;fill-opacity:1;stroke-width:0.8905791"
         id="path935"
         inkscape:connector-curvature="0" />
      <path
         d="m 122.83555,39.472929 h 4.76599 v 25.291056 h -4.76599 z m -13.84572,0 h 4.76599 v 25.291056 h -4.76599 z m 2.20905,10.453868 h 14.73282 v 4.592049 h -14.73282 z"
         style="fill:#e5e5e5;fill-opacity:1;stroke-width:0.8905791"
         id="path937"
         inkscape:connector-curvature="0" />
      <path
         d="m 138.00323,41.54283 h 4.76599 v 23.221155 h -4.76599 z m -6.88808,-2.069901 h 18.54214 v 4.592049 h -18.54214 z"
         style="fill:#e5e5e5;fill-opacity:1;stroke-width:0.8905791"
         id="path939"
         inkscape:connector-curvature="0" />
    </g>
    <g
       aria-label="FIT"
       transform="matrix(1.0166903,0,0,0.98358369,0,0.52916667)"
       style="font-style:normal;font-variant:normal;font-weight:bold;font-stretch:normal;font-size:69.53727722px;line-height:1.25;font-family:Bahnschrift;-inkscape-font-specification:'Bahnschrift, Bold';font-variant-ligatures:normal;font-variant-caps:normal;font-variant-numeric:normal;font-feature-settings:normal;text-align:start;letter-spacing:0px;word-spacing:0px;writing-mode:lr-tb;text-anchor:start;fill:#e5e5e5;fill-opacity:1;stroke:none;stroke-width:1.73843205"
       id="text902-2">
      <path
         d="m 58.745519,76.387803 h 9.303328 v 49.368747 h -9.303328 z m 3.395375,20.813648 h 25.295543 v 8.963789 H 62.140894 Z m 0,-20.813648 h 29.030455 v 8.96379 H 62.140894 Z"
         style="fill:#e5e5e5;fill-opacity:1;stroke-width:1.73843205"
         id="path924"
         inkscape:connector-curvature="0" />
      <path
         d="M 107.23147,125.75655 H 97.588608 V 76.387803 h 9.642862 z"
         style="fill:#e5e5e5;fill-opacity:1;stroke-width:1.73843205"
         id="path926"
         inkscape:connector-curvature="0" />
      <path
         d="m 126.78883,80.428299 h 9.30333 v 45.328251 h -9.30333 z m -13.44568,-4.040496 h 36.19469 v 8.96379 h -36.19469 z"
         style="fill:#e5e5e5;fill-opacity:1;stroke-width:1.73843205"
         id="path928"
         inkscape:connector-curvature="0" />
    </g>
  </g>
</svg>
