<?xml version="1.0" encoding="utf-8"?>
<!-- Generator: Adobe Illustrator 23.0.3, SVG Export Plug-In . SVG Version: 6.00 Build 0)  -->
<svg version="1.1"
	 id="svg8" inkscape:version="0.92.4 (5da689c313, 2019-01-14)" sodipodi:docname="NOVO LOGO.svg" xmlns:cc="http://creativecommons.org/ns#" xmlns:dc="http://purl.org/dc/elements/1.1/" xmlns:inkscape="http://www.inkscape.org/namespaces/inkscape" xmlns:rdf="http://www.w3.org/1999/02/22-rdf-syntax-ns#" xmlns:sodipodi="http://sodipodi.sourceforge.net/DTD/sodipodi-0.dtd" xmlns:svg="http://www.w3.org/2000/svg"
	 xmlns="http://www.w3.org/2000/svg" xmlns:xlink="http://www.w3.org/1999/xlink" x="0px" y="0px" viewBox="0 0 542.7 301.9"
	 style="enable-background:new 0 0 542.7 301.9;" xml:space="preserve">
<sodipodi:namedview  bordercolor="#666666" borderopacity="1.0" fit-margin-bottom="10" fit-margin-left="10" fit-margin-right="10" fit-margin-top="10" id="base" inkscape:current-layer="layer1" inkscape:cx="418.39853" inkscape:cy="151.76154" inkscape:document-units="mm" inkscape:guide-bbox="true" inkscape:pageopacity="0.0" inkscape:pageshadow="2" inkscape:window-height="1001" inkscape:window-maximized="1" inkscape:window-width="1920" inkscape:window-x="-9" inkscape:window-y="-9" inkscape:zoom="1.4" pagecolor="#ffffff" showgrid="false" showguides="true">
	<sodipodi:guide  id="guide834" inkscape:locked="false" orientation="0,1" position="51.242494,-29.882317"></sodipodi:guide>
</sodipodi:namedview>
<g id="layer1" transform="translate(-9.9896455,-27.198065)" inkscape:groupmode="layer" inkscape:label="Camada 1">
	<rect id="rect815" x="117.7" y="131.1" width="320.4" height="27.9"/>
	<path id="rect817" d="M114.3,56.2L114.3,56.2c7.7,0,13.9,6.2,13.9,13.9v156.4c0,7.7-6.2,13.9-13.9,13.9l0,0
		c-7.7,0-13.9-6.2-13.9-13.9V70.1C100.4,62.4,106.6,56.2,114.3,56.2z"/>
	<path id="rect817-3" d="M447.7,55.9L447.7,55.9c7.7,0,13.9,6.2,13.9,13.9v156.4c0,7.7-6.2,13.9-13.9,13.9l0,0
		c-7.7,0-13.9-6.2-13.9-13.9V69.8C433.8,62.2,440.1,55.9,447.7,55.9z"/>
	<path id="rect817-3-6" d="M480.1,83.5L480.1,83.5c7.7,0,14,6.3,14,14v95.4c0,7.7-6.3,14-14,14l0,0c-7.7,0-14-6.3-14-14V97.5
		C466.1,89.8,472.4,83.5,480.1,83.5z"/>
	<path id="rect817-3-6-7" d="M82.6,83.5L82.6,83.5c7.7,0,14,6.3,14,14v95.4c0,7.7-6.3,14-14,14l0,0c-7.7,0-14-6.3-14-14V97.5
		C68.6,89.8,74.9,83.5,82.6,83.5z"/>
	<path id="rect817-3-6-7-1" d="M51.1,111.6L51.1,111.6c7.8,0,14,6.3,14,14v37.2c0,7.8-6.3,14-14,14l0,0c-7.8,0-14-6.3-14-14v-37.2
		C37.1,117.9,43.3,111.6,51.1,111.6z"/>
	<path id="rect817-3-6-7-1-4" d="M511.6,111.6L511.6,111.6c7.8,0,14,6.3,14,14v37.2c0,7.8-6.3,14-14,14l0,0c-7.8,0-14-6.3-14-14
		v-37.2C497.6,117.9,503.8,111.6,511.6,111.6z"/>
	<g id="text902" transform="scale(1.0459998,0.95602317)">
		<path id="path931" inkscape:connector-curvature="0" d="M138.8,89.5h24.9c1.4,0,2.6-0.3,3.6-1c1.1-0.7,1.9-1.7,2.4-3
			c0.6-1.3,0.9-2.8,0.9-4.4l0,0c0-1.7-0.3-3.2-0.9-4.4c-0.6-1.3-1.4-2.3-2.4-3s-2.3-1-3.7-1h-24.9v-13h26c3.9,0,7.4,0.9,10.4,2.7
			c3,1.8,5.3,4.3,7,7.5c1.6,3.2,2.5,7,2.5,11.2l0,0c0,4.3-0.8,8-2.5,11.3c-1.6,3.2-4,5.7-7,7.5s-6.4,2.7-10.4,2.7h-26L138.8,89.5
			L138.8,89.5z M133.4,59.6H147v71.7h-13.5V59.6H133.4z M153.9,100.3l14.4-2.3l19.3,33.3h-16.4L153.9,100.3z"/>
		<path id="path933" inkscape:connector-curvature="0" d="M212.3,131.4h-14V59.7h14V131.4z"/>
		<path id="path935" inkscape:connector-curvature="0" d="M278.1,91.3v14c0,5.3-1.1,10-3.3,14.1c-2.1,4-5.2,7.2-9.1,9.4
			s-8.5,3.3-13.7,3.3s-9.8-1-13.9-3.1c-4-2.1-7.1-5.1-9.3-8.9s-3.3-8.2-3.3-13.3V85.7c0-5.3,1.1-10,3.2-14.1c2.2-4,5.2-7.2,9.2-9.4
			c3.9-2.2,8.5-3.4,13.7-3.4c4.3,0,8.2,0.9,11.8,2.7c3.6,1.7,6.6,4.2,9,7.4c2.4,3.2,4.1,7,4.9,11.2l0,0h-14.6l0,0
			c-0.5-1.5-1.3-2.8-2.5-3.9c-1.1-1.1-2.4-2-4-2.5c-1.5-0.6-3.1-0.9-4.7-0.9c-2.4,0-4.5,0.5-6.4,1.6c-1.8,1.1-3.2,2.5-4.2,4.5
			c-1,1.9-1.5,4.2-1.5,6.7v21.2c0,2.2,0.5,4.2,1.5,5.9c1,1.7,2.5,3,4.3,3.9c1.9,0.9,4,1.4,6.5,1.4c2.4,0,4.6-0.5,6.4-1.5
			c1.8-1,3.3-2.5,4.2-4.4c1-1.9,1.5-4.2,1.5-6.8v-1.2H253v-13L278.1,91.3z"/>
		<path id="path937" inkscape:connector-curvature="0" d="M330.7,59.7h13.5v71.7h-13.5V59.7z M291.4,59.7h13.5v71.7h-13.5V59.7z
			 M297.7,89.3h41.8v13h-41.8V89.3z"/>
		<path id="path939" inkscape:connector-curvature="0" d="M373.7,65.6h13.5v65.8h-13.5V65.6z M354.1,59.7h52.6v13h-52.6V59.7z"/>
	</g>
	<g id="text902-2" transform="matrix(1.0166903,0,0,0.98358369,0,0.52916667)">
		<path id="path924" inkscape:connector-curvature="0" d="M148.5,166.8h26.4v139.9h-26.4V166.8z M158.1,225.8h71.7v25.4h-71.7V225.8
			z M158.1,166.8h82.3v25.4h-82.3V166.8z"/>
		<path id="path926" inkscape:connector-curvature="0" d="M285.9,306.7h-27.3V166.8h27.3V306.7z"/>
		<path id="path928" inkscape:connector-curvature="0" d="M341.4,178.2h26.4v128.5h-26.4V178.2z M303.3,166.8h102.6v25.4H303.3
			V166.8z"/>
	</g>
</g>
</svg>
